# xmcd
#
# Track frame offsets: 
#        150
#        25050
#        47200
#        70288
#        91013
#        111063
#        134700
#        157875
#        178525
#        195920
#        214288
#        237488
#        258525
#        283188
#
# Disc length: 4105 seconds
#
# Revision: 0
# Processed by: cddbd v1.5.2PL0 Copyright (c) Steve Scherf et al.
# Submitted via: ExactAudioCopy v1.0b3
#
DISCID=c910070e
DTITLE=Various Artist - Nhat Ky Doi Toi
DYEAR=1989
DGENRE=
TTITLE0=Huong Lan - Nhat ky doi toi
TTITLE1=Bang Chau - Hay quen nhau
TTITLE2=Thanh Tuyen - Cac anh ve
TTITLE3=Duy Quang - Nguoi viet nhac buon
TTITLE4=Huong Lan - Dua em vao ha
TTITLE5=Giao Linh - Dam cuoi ngheo
TTITLE6=Thanh Thuy - Tham kin
TTITLE7=Huong Lan - Linh xa nha
TTITLE8=Elvis Phuong - Muoi ba tuoi linh
TTITLE9=Thanh Tuyen - Dem dai chien tuyen
TTITLE10=Giao Linh - Khong phai tai chung minh
TTITLE11=Duy Quang - Thu nguoi chien binh
TTITLE12=Thanh Thuy - Cho vua long anh
TTITLE13=Phuong Dung - Tim ca rung chieu
EXTD=
EXTT0=
EXTT1=
EXTT2=
EXTT3=
EXTT4=
EXTT5=
EXTT6=
EXTT7=
EXTT8=
EXTT9=
EXTT10=
EXTT11=
EXTT12=
EXTT13=
PLAYORDER=
